<svg width="55" height="63" viewBox="0 0 55 63" fill="none" xmlns="http://www.w3.org/2000/svg">
<g clip-path="url(#clip0)" filter="url(#filter0_d)">
<path d="M42.3599 50.9201C42.3574 50.9151 42.3543 50.9112 42.3524 50.9062V11.6345C42.3524 10.4379 40.4435 7.04436 39.4972 5.43499V4.58871C39.8557 4.35549 40.0939 3.95283 40.0939 3.49436C40.0939 2.78697 39.5293 2.20913 38.8262 2.18823C38.527 2.16637 35.9487 2 27.3506 2C18.9374 2 16.7725 2.16075 16.4611 2.18865C15.7633 2.21497 15.204 2.79111 15.204 3.49478C15.204 3.77108 15.2912 4.02689 15.4382 4.23825V5.43541C14.4917 7.04479 12.5829 10.4383 12.5829 11.635V51.2277C12.5829 51.2475 12.5869 51.2658 12.5883 51.2845C12.5905 51.3173 12.5925 51.3499 12.5985 51.3811C12.6037 51.4084 12.6119 51.4341 12.6193 51.4609C12.6269 51.4871 12.6336 51.5133 12.6438 51.5381C12.6544 51.5654 12.6676 51.5901 12.6807 51.6155C12.6928 51.6392 12.7039 51.663 12.7188 51.6857C12.7334 51.7085 12.7507 51.7304 12.7686 51.7511C12.7851 51.7728 12.8015 51.7947 12.8206 51.8145C12.8404 51.8353 12.8627 51.8531 12.8839 51.8719C12.9042 51.8888 12.9231 51.9066 12.9448 51.9225C12.9723 51.9413 13.0018 51.9571 13.0315 51.9735C13.0473 51.9819 13.0614 51.9933 13.0783 52.0007C13.1858 52.0508 13.7896 52.3226 14.8068 52.6771C14.7313 52.8038 14.6848 52.9515 14.6848 53.111V54.5144C14.6848 54.8986 14.9423 55.2354 15.3135 55.3364C15.697 55.4413 21.5579 57.0007 28.2885 57.0002C32.2442 57.0002 36.5004 56.4615 40.1208 54.7729C40.4208 54.6328 40.613 54.3312 40.613 54.0005V52.923C40.613 52.7753 40.5723 52.6386 40.506 52.5174C40.9592 52.3614 41.4132 52.1989 41.8702 52.0227C42.3104 51.853 42.5292 51.3599 42.3599 50.9201ZM14.2882 23.0234C14.5959 22.9904 14.9074 22.9484 15.2258 22.9058C15.5591 22.8531 15.8907 22.7729 16.2323 22.7046C16.5743 22.6351 16.9189 22.5564 17.2683 22.4738C17.6087 22.3663 17.9534 22.2577 18.3023 22.1483C18.6507 22.0352 19.0097 21.9303 19.358 21.7944C19.7 21.6457 20.0451 21.4956 20.3935 21.344C20.7388 21.1858 21.1024 21.0474 21.4423 20.8669C21.7754 20.6767 22.1111 20.4846 22.4488 20.2911C22.785 20.0951 23.1312 19.9049 23.465 19.697C23.7804 19.4671 24.0973 19.2365 24.4158 19.0054C24.7331 18.7709 25.0521 18.5357 25.3714 18.3C25.6785 18.0525 25.9627 17.7828 26.2528 17.5161C26.7894 17.0161 27.3284 16.5137 27.8667 16.0115L28.2491 15.6379L28.564 15.3733C28.7685 15.1952 28.974 15.0137 29.2281 14.8372C29.4688 14.6597 29.7039 14.4742 29.9525 14.3165C30.1981 14.1525 30.4383 13.9773 30.6993 13.8419C30.9537 13.6963 31.2044 13.5428 31.4717 13.4259C31.7303 13.2912 31.9888 13.1548 32.2601 13.0498C32.525 12.9308 32.7939 12.8201 33.0703 12.7329L33.4792 12.5858L33.8952 12.4605C36.1137 11.8024 38.4718 11.6903 40.5487 11.8101C40.5827 11.8121 40.615 11.815 40.6497 11.817V35.2888C39.8816 35.0853 39.066 34.9136 38.1911 34.8036C36.7524 34.6268 35.1714 34.604 33.5431 34.8452C33.1345 34.8998 32.723 34.9635 32.317 35.0681C31.9055 35.1539 31.4994 35.2672 31.0928 35.3959C30.2753 35.6336 29.4712 35.9545 28.7025 36.3407C28.3069 36.519 27.9404 36.7379 27.5651 36.9508C27.1819 37.1543 26.8369 37.4035 26.4866 37.648C26.1368 37.8793 25.7849 38.16 25.4355 38.4488L24.9131 38.8781L24.5124 39.2511C24.0018 39.7383 23.4914 40.2256 22.9825 40.7108L22.2838 41.3849L21.5385 41.9954C21.2914 42.201 21.0456 42.405 20.8011 42.6085C20.5486 42.8006 20.2849 42.9764 20.0299 43.1611C19.7729 43.3447 19.5166 43.5281 19.2625 43.7093C19.0016 43.8801 18.7326 44.035 18.47 44.1985C18.2058 44.3614 17.9437 44.5234 17.6847 44.6828C17.4128 44.8243 17.1442 44.965 16.878 45.1032C16.61 45.2443 16.3453 45.3849 16.0837 45.5236C15.8103 45.6375 15.5402 45.7523 15.275 45.8752C15.0077 45.9916 14.7477 46.1218 14.4815 46.2257C14.4167 46.2495 14.3543 46.2733 14.2891 46.2961V23.0234H14.2882ZM17.0243 6.10216C17.1025 5.97091 17.1436 5.82014 17.1436 5.66767V4.80113H37.7921V5.66767C37.7921 5.82025 37.8333 5.97091 37.9115 6.10216C38.3383 6.82218 38.7765 7.60215 39.1747 8.34614C38.6146 8.2167 38.0327 8.10518 37.4197 8.02698C36.0095 7.85064 34.4595 7.82772 32.8624 8.06858C32.4623 8.12333 32.0588 8.1872 31.6602 8.29171C31.2566 8.37766 30.8579 8.49097 30.4594 8.61946C29.6572 8.85714 28.8688 9.1781 28.1156 9.5641C27.7279 9.74257 27.3677 9.96146 27.0006 10.1746C26.6243 10.3779 26.2866 10.6269 25.9429 10.8718C25.6 11.103 25.2546 11.3833 24.9119 11.6723L24.3998 12.1019L24.0071 12.4745C23.5062 12.9617 23.0058 13.4493 22.5072 13.9346L21.8216 14.6084L21.091 15.2189C20.8491 15.4244 20.6079 15.6286 20.368 15.8319C20.1205 16.0241 19.8619 16.2001 19.6114 16.3845C19.3589 16.5682 19.1086 16.7512 18.8594 16.9328C18.6034 17.1038 18.3397 17.2584 18.0828 17.4222C17.8235 17.5849 17.5665 17.7469 17.312 17.9065C17.0456 18.0479 16.7819 18.1883 16.5209 18.3266C16.2582 18.4683 15.9985 18.6087 15.742 18.747C15.4739 18.8612 15.2084 18.9763 14.9489 19.0984C14.7268 19.198 14.5081 19.304 14.2881 19.3978V11.6379C14.3151 11.0417 15.7247 8.29436 17.0243 6.10216ZM14.2882 50.6576V49.8295C14.3751 49.8217 14.4603 49.8172 14.5485 49.8058C14.879 49.7716 15.2141 49.726 15.5559 49.681C15.8959 49.6285 16.2333 49.5483 16.5825 49.4798C16.9313 49.4105 17.2826 49.3317 17.6384 49.2491C17.9858 49.1416 18.3374 49.0331 18.6927 48.9237C19.0483 48.8104 19.4145 48.7054 19.7693 48.5697C20.1181 48.4212 20.4702 48.2712 20.825 48.1191C21.1768 47.9617 21.5482 47.8229 21.8944 47.6422C22.2344 47.4521 22.5766 47.2599 22.921 47.0668C23.2636 46.8702 23.6165 46.68 23.9575 46.4725C24.2789 46.2427 24.6025 46.012 24.9269 45.7808C25.2505 45.5465 25.5756 45.3112 25.9016 45.0756C26.2143 44.8279 26.5045 44.5587 26.8001 44.2912C27.3471 43.7915 27.897 43.2889 28.4462 42.7867L28.8354 42.4134L29.1562 42.1484C29.3647 41.9706 29.5742 41.7888 29.8337 41.6126C30.0788 41.4348 30.318 41.2496 30.5725 41.0916C30.8241 40.9277 31.0682 40.7525 31.3332 40.6167C31.5937 40.4717 31.8491 40.3177 32.1215 40.2013C32.3859 40.0661 32.6495 39.9298 32.9258 39.8249C33.1961 39.7056 33.4704 39.5957 33.7522 39.508L34.1687 39.3609L34.5926 39.2361C36.5991 38.6518 38.716 38.4993 40.6472 38.5547V50.6523C27.7576 55.3718 16.7029 51.6074 14.2882 50.6576ZM16.0411 32.1321C16.0411 30.2171 16.8616 28.3467 18.2014 26.9503C19.1591 25.9406 20.3077 25.2302 21.6348 24.8368C22.6465 24.5364 23.3858 24.5635 23.6443 24.6638L23.1793 26.0877C22.8787 26.0127 22.2499 26.0355 21.4432 26.2748C20.5674 26.5348 19.7196 27.0882 19.0902 27.8213C18.2835 28.7721 17.7631 30.0883 17.7631 31.4292C17.7631 32.9747 18.5561 33.9023 20.3758 33.3625C21.0455 33.163 21.7302 32.8366 22.2219 32.4573L22.3726 33.7126C21.8801 34.0775 21.0455 34.5168 19.965 34.8377C17.5735 35.5473 16.0411 34.5262 16.0411 32.1321ZM25.5642 33.1887C27.8344 32.5143 29.4211 30.1011 29.4211 27.8452C29.4211 26.3682 28.4772 25.3626 26.6854 25.8946C24.4152 26.5683 22.8421 28.9908 22.8421 31.2481C22.842 32.8347 23.8815 33.6884 25.5642 33.1887ZM26.4941 27.182C27.4652 26.8933 27.7658 27.6525 27.7658 28.3365C27.7658 29.6624 26.9732 31.5393 25.783 31.8928C24.9763 32.1325 24.4839 31.6353 24.4839 30.7192C24.4839 29.475 25.2222 27.5591 26.4941 27.182ZM31.0248 31.4173L29.4244 31.8918L31.2848 21.63L32.8709 21.1587L31.0248 31.4173ZM34.2268 30.6171C35.0746 30.3646 35.95 29.6813 36.6067 28.2554L36.6474 28.2437C36.5928 28.8345 36.5385 29.3841 36.5246 29.7847L38.0018 29.3463C37.9745 28.5606 38.0835 27.2839 38.2751 26.2286L38.9589 22.5523C38.4538 22.5387 37.6734 22.6331 36.949 22.848C33.8446 23.7705 32.258 26.6617 32.258 28.9324C32.2574 30.2711 33.0369 30.9698 34.2268 30.6171ZM36.5245 24.2039C36.8117 24.1187 37.0167 24.0858 37.1811 24.0776L36.8255 25.9334C36.5115 27.723 35.6087 28.9212 34.8699 29.1403C34.1727 29.3473 33.9128 28.8501 33.9128 28.1529C33.9129 26.6348 35.0478 24.642 36.5245 24.2039Z" fill="#3D8ED9"/>
</g>
<defs>
<filter id="filter0_d" x="-4" y="0" width="63" height="63" filterUnits="userSpaceOnUse" color-interpolation-filters="sRGB">
<feFlood flood-opacity="0" result="BackgroundImageFix"/>
<feColorMatrix in="SourceAlpha" type="matrix" values="0 0 0 0 0 0 0 0 0 0 0 0 0 0 0 0 0 0 127 0"/>
<feOffset dy="2"/>
<feGaussianBlur stdDeviation="2"/>
<feColorMatrix type="matrix" values="0 0 0 0 0 0 0 0 0 0 0 0 0 0 0 0 0 0 0.25 0"/>
<feBlend mode="normal" in2="BackgroundImageFix" result="effect1_dropShadow"/>
<feBlend mode="normal" in="SourceGraphic" in2="effect1_dropShadow" result="shape"/>
</filter>
<clipPath id="clip0">
<rect width="55" height="55" fill="white" transform="translate(0 2)"/>
</clipPath>
</defs>
</svg>
