<svg width="119" height="127" viewBox="0 0 119 127" fill="none" xmlns="http://www.w3.org/2000/svg">
<g clip-path="url(#clip0)" filter="url(#filter0_d)">
<path d="M24.7534 34.0219C24.7534 30.356 21.7708 27.3735 18.105 27.3735C16.4967 27.3735 14.9857 27.9381 13.796 28.9561C13.108 28.7213 12.3819 28.6 11.6463 28.6C7.98034 28.6 4.99792 31.5824 4.99792 35.2484C4.99792 38.0783 6.82172 40.5752 9.40647 41.5072C10.1858 44.3307 12.7886 46.3934 15.8159 46.3934C19.4819 46.3934 22.4643 43.411 22.4643 39.745C22.4643 39.5187 22.4529 39.2932 22.4301 39.0696C23.8869 37.8192 24.7534 35.9794 24.7534 34.0219ZM19.6506 36.78L18.4253 37.4689L18.8388 38.8123C18.9313 39.1131 18.9785 39.4268 18.9785 39.7446C18.9785 41.4882 17.5598 42.9066 15.8164 42.9066C14.1664 42.9066 12.7817 41.619 12.6641 39.9754L12.5639 38.5797L11.1796 38.3754C9.6433 38.1488 8.48469 36.8042 8.48469 35.2479C8.48469 33.5043 9.90338 32.0859 11.6468 32.0859C12.2287 32.0859 12.7968 32.2448 13.2897 32.5456L14.6334 33.3653L15.5856 32.1121C16.1906 31.3158 17.1089 30.8594 18.1055 30.8594C19.8491 30.8594 21.2676 32.2781 21.2676 34.0215C21.2673 35.1624 20.6479 36.2194 19.6506 36.78Z" fill="#3D8ED9"/>
<path d="M43.3468 11.7214C43.3468 8.34718 40.6016 5.60229 37.2274 5.60229C35.7831 5.60229 34.4244 6.09665 33.3425 6.99054C32.7393 6.79647 32.1067 6.6963 31.4657 6.6963C28.0914 6.6963 25.3463 9.44141 25.3463 12.8155C25.3463 13.0237 25.357 13.2317 25.3784 13.4388C24.5147 14.517 24.0336 15.8653 24.0336 17.2647C24.0336 20.6389 26.7787 23.3838 30.153 23.3838C31.2081 23.3838 32.241 23.1096 33.1512 22.598C33.802 22.8274 34.4902 22.9462 35.1853 22.9462C38.5596 22.9462 41.3047 20.2011 41.3047 16.827C41.3047 16.6515 41.2973 16.4768 41.2824 16.3029C42.5786 15.1538 43.3468 13.4902 43.3468 11.7214ZM38.5145 14.0182L37.289 14.7071L37.7027 16.0507C37.7798 16.3008 37.8189 16.5621 37.8189 16.827C37.8189 18.2787 36.6377 19.4599 35.1858 19.4599C34.7191 19.4599 34.2605 19.3358 33.8594 19.101L32.7942 18.4772L31.8522 19.2746C31.3708 19.6821 30.7833 19.8975 30.153 19.8975C28.701 19.8975 27.5199 18.7164 27.5199 17.2647C27.5201 16.513 27.8436 15.7948 28.4075 15.2947L29.2219 14.5723L28.9302 13.5234C28.8658 13.2919 28.833 13.0537 28.833 12.8157C28.833 11.364 30.0142 10.1828 31.4661 10.1828C31.9507 10.1828 32.4237 10.3151 32.8342 10.5654L34.1778 11.3849L35.1298 10.1315C35.6332 9.4686 36.3981 9.0886 37.2278 9.0886C38.6798 9.0886 39.8609 10.2698 39.8609 11.7214C39.8609 12.6714 39.3449 13.5513 38.5145 14.0182Z" fill="#3D8ED9"/>
<path d="M114.002 24.6219C114.002 21.2476 111.257 18.5027 107.883 18.5027C106.438 18.5027 105.08 18.9971 103.998 19.8912C103.395 19.6969 102.762 19.5967 102.121 19.5967C98.7463 19.5967 96.0012 22.3419 96.0012 25.7159C96.0012 25.9242 96.0119 26.1322 96.0333 26.3395C95.1696 27.4177 94.6885 28.7657 94.6885 30.1651C94.6885 33.5394 97.4336 36.2843 100.808 36.2843C101.863 36.2843 102.896 36.01 103.806 35.4985C104.457 35.7279 105.145 35.8466 105.84 35.8466C109.214 35.8466 111.96 33.1015 111.96 29.7275C111.96 29.5522 111.952 29.3772 111.937 29.2036C113.234 28.0547 114.002 26.3909 114.002 24.6219ZM109.169 26.9189L107.943 27.608L108.357 28.9517C108.434 29.2015 108.473 29.4625 108.473 29.7275C108.473 31.1792 107.292 32.3603 105.84 32.3603C105.374 32.3603 104.915 32.2362 104.514 32.0015L103.449 31.3777L102.507 32.1751C102.025 32.5825 101.438 32.798 100.807 32.798C99.3555 32.798 98.1743 31.6168 98.1743 30.1651C98.1743 29.4137 98.4978 28.6955 99.0617 28.1951L99.8759 27.473L99.5844 26.4243C99.5198 26.1924 99.4873 25.9541 99.4873 25.7159C99.4873 24.2642 100.668 23.083 102.12 23.083C102.605 23.083 103.078 23.2153 103.488 23.4656L104.832 24.2856L105.784 23.0319C106.288 22.3688 107.052 21.9888 107.882 21.9888C109.334 21.9888 110.515 23.17 110.515 24.6217C110.516 25.572 110 26.452 109.169 26.9189Z" fill="#3D8ED9"/>
<path d="M95.4475 9.5669C94.5436 8.2363 93.2274 7.30406 91.7169 6.89221C91.5245 6.19077 91.217 5.52233 90.8035 4.91385C89.8055 3.44496 88.2952 2.45252 86.5507 2.1197C84.8059 1.78687 83.0365 2.1534 81.5679 3.15118C79.2272 4.74163 78.1866 7.65339 78.8685 10.3151C76.971 12.5463 76.7277 15.8585 78.429 18.3626C79.427 19.8315 80.9373 20.8239 82.6818 21.1568C83.1021 21.2369 83.5234 21.2767 83.942 21.2767C85.261 21.2765 86.5498 20.883 87.6649 20.125C87.8518 19.9981 88.0317 19.8622 88.2039 19.7176C90.0575 20.2199 92.0656 19.9026 93.6851 18.8023H93.6848C96.717 16.7422 97.5079 12.5993 95.4475 9.5669ZM93.0547 13.896C92.8965 14.7255 92.4244 15.4439 91.7258 15.9187H91.7255C90.7819 16.56 89.5594 16.6415 88.5353 16.1316L87.277 15.5057L86.3982 16.6025C86.2014 16.8482 85.9683 17.0631 85.7056 17.2419C85.007 17.7165 84.1654 17.891 83.3356 17.7323C82.5059 17.5738 81.7877 17.102 81.3129 16.4033C80.3855 15.0385 80.6723 13.1696 81.9657 12.1484L83.0639 11.2812L82.4548 10.0215C81.7787 8.62328 82.2398 6.90918 83.5271 6.03458C84.0575 5.67433 84.6702 5.48723 85.2977 5.48723C85.4967 5.48723 85.6973 5.50606 85.8971 5.54418C86.7269 5.70269 87.4451 6.1745 87.9199 6.87315C88.2469 7.3545 88.4347 7.91393 88.4631 8.49056L88.5402 10.0629L90.1121 10.1459C91.1103 10.1989 92.0042 10.702 92.5641 11.526C93.0387 12.2246 93.213 13.0665 93.0547 13.896Z" fill="#3D8ED9"/>
<path d="M95.8733 50.9776C95.8733 50.0412 95.6553 49.1162 95.2469 48.2825C95.6593 47.4486 95.8733 46.5321 95.8733 45.5785C95.8733 42.6175 93.7597 40.142 90.9621 39.5798C91.2837 38.8302 91.4573 38.0135 91.4573 37.173C91.4573 33.7985 88.712 31.0534 85.3377 31.0534C84.4178 31.0534 83.5209 31.2596 82.7056 31.6489C81.2295 30.2358 79.2539 29.4265 77.1635 29.4265C76.6266 29.4265 76.0965 29.4792 75.5775 29.5841C75.1043 29.1127 74.559 28.7237 73.9633 28.4308C75.1765 27.2029 75.8854 25.529 75.8854 23.758C75.8854 20.0916 72.9025 17.1085 69.2359 17.1085C67.6289 17.1085 66.1182 17.6732 64.9277 18.6915C64.24 18.457 63.5142 18.3359 62.779 18.3359C61.4728 18.3359 60.2247 18.7124 59.1621 19.4036C56.9437 17.3093 53.4866 16.956 50.8615 18.7396C48.6165 20.2652 47.5678 23.0075 48.0877 25.5788C45.4874 26.0615 43.4593 28.1944 43.1339 30.8461C42.3853 30.6297 41.5337 30.5144 40.5882 30.5956C39.1449 30.7183 37.8671 31.201 36.8719 31.9843C36.2629 31.786 35.6228 31.684 34.9744 31.684C31.5999 31.684 28.8548 34.4293 28.8548 37.8036C28.8548 38.0119 28.8652 38.2192 28.8864 38.4253C28.0229 39.5035 27.5416 40.852 27.5416 42.2521C27.5416 43.2625 27.7856 44.2249 28.2265 45.0756C24.7393 45.2764 21.9635 48.176 21.9635 51.7116C21.9635 53.3739 22.5855 54.9474 23.6625 56.1499C21.9658 58.2375 21.1254 60.9236 21.345 63.6185L30.8275 121H85.3814L94.8465 63.7614L94.8642 63.6187C95.0313 61.5681 94.5845 59.5226 93.614 57.742C93.756 57.1884 93.8294 56.6261 93.8294 56.0816C93.8294 55.9066 93.822 55.7323 93.8073 55.5589C95.1049 54.4095 95.8733 52.7457 95.8733 50.9776ZM33.7858 117.513L24.8153 63.2661C24.6749 61.3196 25.3252 59.4598 26.6503 58.0223C27.9906 56.568 29.8179 55.7673 31.7958 55.7673H31.8685C35.6447 55.7673 38.7163 58.7233 38.8616 62.4964L38.863 62.5315L38.8795 62.742C38.8793 62.884 38.8818 63.0263 38.8874 63.169L43.2032 117.513H33.7858ZM46.7009 117.513L42.367 62.6212C42.4004 60.8559 43.0858 59.1969 44.3211 57.913C45.6527 56.5295 47.4437 55.7673 49.364 55.7673C53.2228 55.7673 56.3621 58.9069 56.3621 62.7655V117.513H46.7009ZM59.8487 117.513V62.7657C59.8487 58.9069 62.9882 55.7676 66.8471 55.7676C68.7673 55.7676 70.5584 56.5297 71.8899 57.9133C73.1254 59.1972 73.8108 60.8559 73.8441 62.6214L69.5099 117.513H59.8487ZM91.3955 63.2661L82.425 117.513H73.0078L77.3195 63.2399L77.3236 63.1688C77.3292 63.0258 77.3318 62.8831 77.3315 62.7409L77.3453 62.5663L77.3494 62.4961C77.4947 58.723 80.5664 55.7671 84.3425 55.7671H84.4152C86.3929 55.7671 88.2204 56.5678 89.5608 58.0221C90.8856 59.4598 91.5359 61.3196 91.3955 63.2661ZM91.0394 53.2735L89.9689 53.8759C88.3169 52.8456 86.3913 52.2815 84.415 52.2815H84.3423C80.6828 52.2815 77.465 54.1346 75.5898 56.9734C75.2426 56.4525 74.8458 55.9582 74.4014 55.4963C72.4066 53.4232 69.7235 52.2815 66.8464 52.2815C63.2009 52.2815 59.9842 54.1516 58.1051 56.9829C56.2257 54.1518 53.009 52.2815 49.3635 52.2815C46.4866 52.2815 43.8036 53.4232 41.8087 55.4963C41.3643 55.9582 40.9676 56.4523 40.6203 56.9734C38.7449 54.1346 35.5273 52.2815 31.8679 52.2815H31.7951C29.8356 52.2815 27.926 52.8361 26.2835 53.8494C25.7557 53.2733 25.45 52.5137 25.45 51.7109C25.45 49.968 26.869 48.55 28.6133 48.55C29.195 48.55 29.7633 48.7087 30.2562 49.009L31.5985 49.8267L32.5502 48.5758C32.7596 48.3004 33.0144 48.0603 33.307 47.8625L36.2824 45.8481L32.8587 44.7581C31.764 44.4094 31.0283 43.4021 31.0283 42.2517C31.0283 41.4993 31.3516 40.7811 31.9155 40.281L32.7308 39.5579L32.4375 38.5078C32.3738 38.2798 32.3415 38.0428 32.3415 37.8034C32.3415 36.3514 33.5229 35.1701 34.9748 35.1701C35.4604 35.1701 35.9331 35.3018 36.3419 35.5517L37.686 36.3724L38.6385 35.118C39.214 34.3603 40.1776 34.1295 40.8846 34.0691C42.4309 33.9389 43.5602 34.8549 44.2342 35.4036C44.4429 35.5731 44.6231 35.7197 44.8195 35.8387L46.1749 36.6587L47.1114 35.3997L47.9653 34.2766L47.1351 33.2182C46.7685 32.7506 46.5747 32.1895 46.5747 31.5954C46.5747 30.153 47.7403 28.9777 49.1792 28.9623L50.1614 29.0184L50.7225 28.2881C50.8849 28.0768 51.066 27.8916 51.2603 27.738L52.3573 26.871L51.7488 25.612C51.0725 24.2126 51.5334 22.498 52.8208 21.6232C54.2629 20.6426 56.2338 21.0196 57.2126 22.4606C57.2707 22.5462 57.3283 22.6442 57.3846 22.7519L58.6282 25.1353L60.2968 23.0273C60.9027 22.2617 61.8075 21.8224 62.7788 21.8224C63.3605 21.8224 63.9288 21.9811 64.4218 22.2814L65.7635 23.0989L66.7153 21.8487C67.3217 21.0522 68.2404 20.5952 69.2354 20.5952C70.9795 20.5952 72.3987 22.0141 72.3987 23.7585C72.3987 24.8992 71.7795 25.9553 70.7831 26.5147L69.5606 27.2008L69.9687 28.5421C70.0584 28.8373 70.1056 29.1406 70.1091 29.4451C70.1063 29.4916 70.1047 29.5387 70.1047 29.5873V31.1132L71.6173 31.3149C72.3836 31.4172 73.0641 31.853 73.4843 32.5107L74.2464 33.7035L75.57 33.2026C76.0774 33.0106 76.6136 32.9133 77.1633 32.9133C78.6775 32.9133 80.085 33.6644 80.9287 34.9228L82.0587 36.6083L83.5546 35.237C84.0448 34.7875 84.6781 34.5402 85.3377 34.5402C86.7899 34.5402 87.971 35.7216 87.971 37.1735C87.971 38.1227 87.4546 39.0029 86.6235 39.4708L85.3914 40.1641L85.8153 41.5128C85.856 41.642 85.886 41.7891 85.9048 41.9507L86.2051 44.5391L88.4828 43.2736C88.8675 43.06 89.3068 42.9471 89.7535 42.9471C91.2056 42.9471 92.3868 44.1273 92.3868 45.5781C92.3868 46.1737 92.193 46.7355 91.8264 47.2031L90.9813 48.2806L91.8283 49.3558C92.1939 49.8204 92.387 50.3806 92.387 50.9762C92.387 51.9254 91.8706 52.8056 91.0394 53.2735Z" fill="#3D8ED9"/>
<path d="M64.032 35.1206C63.5153 35.1206 63.0107 35.1968 62.5289 35.3453C61.3152 34.0319 59.599 33.2612 57.7566 33.2612C54.644 33.2612 52.0349 35.4578 51.3976 38.3819C47.9555 38.5474 45.2059 41.3996 45.2059 44.8822H48.6922C48.6922 43.2162 50.0477 41.8607 51.7137 41.8607C51.9875 41.8607 52.2671 41.9009 52.5448 41.9804L55.0466 42.6956L54.7563 40.1099C54.7421 39.9833 54.7352 39.8719 54.7352 39.769C54.7352 38.103 56.0906 36.7475 57.7566 36.7475C58.8836 36.7475 59.9097 37.3706 60.4341 38.3733L61.3968 40.2143L63.0425 38.9464C63.2436 38.7914 63.5785 38.6069 64.032 38.6069C64.9291 38.6069 65.6589 39.3369 65.6589 40.2338H69.1452C69.1452 37.4143 66.8514 35.1206 64.032 35.1206Z" fill="#3D8ED9"/>
<path d="M75.653 41.5121C73.9477 41.5121 72.3389 42.2454 71.2103 43.4684C70.5897 43.2508 69.9338 43.1391 69.2614 43.1391C65.9934 43.1391 63.3347 45.7977 63.3347 49.0658H66.821C66.821 47.7201 67.9157 46.6254 69.2614 46.6254C69.789 46.6254 70.2938 46.7948 70.721 47.1158L72.4302 48.3992L73.3439 46.4668C73.7655 45.5748 74.6719 44.9984 75.653 44.9984C77.0626 44.9984 78.2096 46.1454 78.2096 47.555H81.6959C81.6957 44.2228 78.9852 41.5121 75.653 41.5121Z" fill="#3D8ED9"/>
<path d="M31.7484 62.4417L28.3088 63.0106L30.5475 76.5442L33.9871 75.9753L31.7484 62.4417Z" fill="#3D8ED9"/>
<path d="M37.2539 95.7333L33.8143 96.3019L35.2105 104.747L38.6501 104.179L37.2539 95.7333Z" fill="#3D8ED9"/>
<path d="M63.7036 102.607L63.3442 107.13L66.8197 107.406L67.179 102.883L63.7036 102.607Z" fill="#3D8ED9"/>
<path d="M65.8443 75.6472L64.7917 88.8963L68.2672 89.1724L69.3198 75.9233L65.8443 75.6472Z" fill="#3D8ED9"/>
<path d="M66.8798 62.5979L66.2676 70.3044L69.7431 70.5805L70.3553 62.874L66.8798 62.5979Z" fill="#3D8ED9"/>
</g>
<defs>
<filter id="filter0_d" x="-4" y="0" width="127" height="127" filterUnits="userSpaceOnUse" color-interpolation-filters="sRGB">
<feFlood flood-opacity="0" result="BackgroundImageFix"/>
<feColorMatrix in="SourceAlpha" type="matrix" values="0 0 0 0 0 0 0 0 0 0 0 0 0 0 0 0 0 0 127 0"/>
<feOffset dy="2"/>
<feGaussianBlur stdDeviation="2"/>
<feColorMatrix type="matrix" values="0 0 0 0 0 0 0 0 0 0 0 0 0 0 0 0 0 0 0.25 0"/>
<feBlend mode="normal" in2="BackgroundImageFix" result="effect1_dropShadow"/>
<feBlend mode="normal" in="SourceGraphic" in2="effect1_dropShadow" result="shape"/>
</filter>
<clipPath id="clip0">
<rect width="119" height="119" fill="white" transform="translate(0 2)"/>
</clipPath>
</defs>
</svg>
